HIERARCHY
ROOT Hips
{
    OFFSET 0.000000 0.000000 0.000000
    CHANNELS 6 Xposition Yposition Zposition Zrotation Xrotation Yrotation
    JOINT Spine
    {
        OFFSET -0.000000 7.284621 0.000000
        CHANNELS 3 Zrotation Xrotation Yrotation
        JOINT Spine1
        {
            OFFSET -0.000000 19.968920 0.000000
            CHANNELS 3 Zrotation Xrotation Yrotation
            JOINT Neck
            {
                OFFSET -0.000000 21.745657 0.000000
                CHANNELS 3 Zrotation Xrotation Yrotation
                JOINT Head
                {
                    OFFSET -0.000000 13.769711 1.776737
                    CHANNELS 3 Zrotation Xrotation Yrotation
                    End Site
                    {
                        OFFSET -0.000000 17.767368 0.000000
                    }
                }
            }
            JOINT LeftShoulder
            {
                OFFSET 3.594505 17.711157 -0.013107
                CHANNELS 3 Zrotation Xrotation Yrotation
                JOINT LeftArm
                {
                    OFFSET 12.210003 0.000000 0.000000
                    CHANNELS 3 Zrotation Xrotation Yrotation
                    JOINT LeftForeArm
                    {
                        OFFSET 24.535166 0.000000 0.000000
                        CHANNELS 3 Zrotation Xrotation Yrotation
                        JOINT LeftHand
                        {
                            OFFSET 20.235195 0.000000 0.000000
                            CHANNELS 3 Zrotation Xrotation Yrotation
                            JOINT LeftHandThumb1
                            {
                                OFFSET 1.906737 -2.166747 3.033446
                                CHANNELS 3 Zrotation Xrotation Yrotation
                                JOINT LeftHandThumb2
                                {
                                    OFFSET 2.043247 0.000000 1.332553
                                    CHANNELS 3 Zrotation Xrotation Yrotation
                                    JOINT LeftHandThumb3
                                    {
                                        OFFSET 2.665105 0.000000 0.000000
                                        CHANNELS 3 Zrotation Xrotation Yrotation
                                        End Site
                                        {
                                            OFFSET 2.367595 0.000000 0.000000
                                        }
                                    }
                                }
                            }
                            JOINT LeftHandIndex1
                            {
                                OFFSET 7.800290 0.000000 3.033446
                                CHANNELS 3 Zrotation Xrotation Yrotation
                                JOINT LeftHandIndex2
                                {
                                    OFFSET 4.441842 0.000000 0.000000
                                    CHANNELS 3 Zrotation Xrotation Yrotation
                                    JOINT LeftHandIndex3
                                    {
                                        OFFSET 2.220921 0.000000 0.000000
                                        CHANNELS 3 Zrotation Xrotation Yrotation
                                        End Site
                                        {
                                            OFFSET 1.972996 0.000000 0.000000
                                        }
                                    }
                                }
                            }
                            JOINT LeftHandMiddle1
                            {
                                OFFSET 7.800290 0.000000 1.005371
                                CHANNELS 3 Zrotation Xrotation Yrotation
                                JOINT LeftHandMiddle2
                                {
                                    OFFSET 4.886026 0.000000 0.000000
                                    CHANNELS 3 Zrotation Xrotation Yrotation
                                    JOINT LeftHandMiddle3
                                    {
                                        OFFSET 2.665105 0.000000 0.000000
                                        CHANNELS 3 Zrotation Xrotation Yrotation
                                        End Site
                                        {
                                            OFFSET 2.367595 0.000000 0.000000
                                        }
                                    }
                                }
                            }
                            JOINT LeftHandRing1
                            {
                                OFFSET 7.366940 0.000000 -1.005371
                                CHANNELS 3 Zrotation Xrotation Yrotation
                                JOINT LeftHandRing2
                                {
                                    OFFSET 4.441842 0.000000 0.000000
                                    CHANNELS 3 Zrotation Xrotation Yrotation
                                    JOINT LeftHandRing3
                                    {
                                        OFFSET 2.220921 0.000000 0.000000
                                        CHANNELS 3 Zrotation Xrotation Yrotation
                                        End Site
                                        {
                                            OFFSET 1.972996 0.000000 0.000000
                                        }
                                    }
                                }
                            }
                            JOINT LeftHandPinky1
                            {
                                OFFSET 6.933591 0.000000 -3.033446
                                CHANNELS 3 Zrotation Xrotation Yrotation
                                JOINT LeftHandPinky2
                                {
                                    OFFSET 3.553473 0.000000 0.000000
                                    CHANNELS 3 Zrotation Xrotation Yrotation
                                    JOINT LeftHandPinky3
                                    {
                                        OFFSET 1.776737 0.000000 0.000000
                                        CHANNELS 3 Zrotation Xrotation Yrotation
                                        End Site
                                        {
                                            OFFSET 1.578397 0.000000 0.000000
                                        }
                                    }
                                }
                            }
                        }
                    }
                }
            }
            JOINT RightShoulder
            {
                OFFSET -3.500468 17.711157 -0.013107
                CHANNELS 3 Zrotation Xrotation Yrotation
                JOINT RightArm
                {
                    OFFSET -12.210003 0.000000 0.000000
                    CHANNELS 3 Zrotation Xrotation Yrotation
                    JOINT RightForeArm
                    {
                        OFFSET -24.535166 0.000000 0.000000
                        CHANNELS 3 Zrotation Xrotation Yrotation
                        JOINT RightHand
                        {
                            OFFSET -20.235195 0.000000 0.000000
                            CHANNELS 3 Zrotation Xrotation Yrotation
                            JOINT RightHandThumb1
                            {
                                OFFSET -1.906737 -2.166747 3.033446
                                CHANNELS 3 Zrotation Xrotation Yrotation
                                JOINT RightHandThumb2
                                {
                                    OFFSET -2.043247 0.000000 1.332553
                                    CHANNELS 3 Zrotation Xrotation Yrotation
                                    JOINT RightHandThumb3
                                    {
                                        OFFSET -2.665105 0.000000 0.000000
                                        CHANNELS 3 Zrotation Xrotation Yrotation
                                        End Site
                                        {
                                            OFFSET -2.367595 0.000000 0.000000
                                        }
                                    }
                                }
                            }
                            JOINT RightHandIndex1
                            {
                                OFFSET -7.800290 0.000000 3.033446
                                CHANNELS 3 Zrotation Xrotation Yrotation
                                JOINT RightHandIndex2
                                {
                                    OFFSET -4.441842 0.000000 0.000000
                                    CHANNELS 3 Zrotation Xrotation Yrotation
                                    JOINT RightHandIndex3
                                    {
                                        OFFSET -2.220921 0.000000 0.000000
                                        CHANNELS 3 Zrotation Xrotation Yrotation
                                        End Site
                                        {
                                            OFFSET -1.972996 0.000000 0.000000
                                        }
                                    }
                                }
                            }
                            JOINT RightHandMiddle1
                            {
                                OFFSET -7.800290 0.000000 1.005371
                                CHANNELS 3 Zrotation Xrotation Yrotation
                                JOINT RightHandMiddle2
                                {
                                    OFFSET -4.886026 0.000000 0.000000
                                    CHANNELS 3 Zrotation Xrotation Yrotation
                                    JOINT RightHandMiddle3
                                    {
                                        OFFSET -2.665105 0.000000 0.000000
                                        CHANNELS 3 Zrotation Xrotation Yrotation
                                        End Site
                                        {
                                            OFFSET -2.367595 0.000000 0.000000
                                        }
                                    }
                                }
                            }
                            JOINT RightHandRing1
                            {
                                OFFSET -7.366940 0.000000 -1.005371
                                CHANNELS 3 Zrotation Xrotation Yrotation
                                JOINT RightHandRing2
                                {
                                    OFFSET -4.441842 0.000000 0.000000
                                    CHANNELS 3 Zrotation Xrotation Yrotation
                                    JOINT RightHandRing3
                                    {
                                        OFFSET -2.220921 0.000000 0.000000
                                        CHANNELS 3 Zrotation Xrotation Yrotation
                                        End Site
                                        {
                                            OFFSET -1.972996 0.000000 0.000000
                                        }
                                    }
                                }
                            }
                            JOINT RightHandPinky1
                            {
                                OFFSET -6.933591 0.000000 -3.033446
                                CHANNELS 3 Zrotation Xrotation Yrotation
                                JOINT RightHandPinky2
                                {
                                    OFFSET -3.553473 0.000000 0.000000
                                    CHANNELS 3 Zrotation Xrotation Yrotation
                                    JOINT RightHandPinky3
                                    {
                                        OFFSET -1.776737 0.000000 0.000000
                                        CHANNELS 3 Zrotation Xrotation Yrotation
                                        End Site
                                        {
                                            OFFSET -1.578397 0.000000 0.000000
                                        }
                                    }
                                }
                            }
                        }
                    }
                }
            }
        }
    }
    JOINT LeftUpLeg
    {
        OFFSET 8.883684 0.000000 0.000000
        CHANNELS 3 Zrotation Xrotation Yrotation
        JOINT LeftLeg
        {
            OFFSET -0.000000 -38.184189 0.000000
            CHANNELS 3 Zrotation Xrotation Yrotation
            JOINT LeftFoot
            {
                OFFSET -0.000000 -35.840691 0.000000
                CHANNELS 3 Zrotation Xrotation Yrotation
                JOINT LeftToeBase
                {
                    OFFSET -0.000000 -5.774395 13.325527
                    CHANNELS 3 Zrotation Xrotation Yrotation
                    End Site
                    {
                        OFFSET -0.000000 0.000000 3.553473
                    }
                }
            }
        }
    }
    JOINT RightUpLeg
    {
        OFFSET -8.883684 0.000000 0.000000
        CHANNELS 3 Zrotation Xrotation Yrotation
        JOINT RightLeg
        {
            OFFSET -0.000000 -38.184189 0.000000
            CHANNELS 3 Zrotation Xrotation Yrotation
            JOINT RightFoot
            {
                OFFSET -0.000000 -35.840691 0.000000
                CHANNELS 3 Zrotation Xrotation Yrotation
                JOINT RightToeBase
                {
                    OFFSET -0.000000 -5.774395 13.325527
                    CHANNELS 3 Zrotation Xrotation Yrotation
                    End Site
                    {
                        OFFSET -0.000000 0.000000 3.553473
                    }
                }
            }
        }
    }
}
MOTION
Frames:    5
Frame Time:    0.008333
-1.680320    81.220970    115.210876    1.058698    -3.335474    -8.269673    1.382482    -0.289591    -0.436637    -4.091588    5.652496    0.054945    5.069695    -1.374706    -0.079524    -4.730024    4.020907    1.305487    1.307571    7.854431    -8.981713    -78.387169    35.951057    -9.077285    5.731549    -11.434186    3.169919    -4.543771    -40.677135    -4.093892    4.878098    0.437241    6.249585    -0.000000    0.000000    4.727906    -0.000000    0.000000    9.455812    -13.003042    1.854130    -7.975852    -26.264626    0.000000    0.000000    -13.132314    0.000000    0.000000    -21.093607    0.124209    -2.586663    -42.186424    0.000000    0.000000    -21.093214    0.000000    0.000000    -28.992489    -2.338714    2.509689    -58.108212    0.000000    0.000000    -29.054106    0.000000    0.000000    -36.896866    -5.574067    7.372145    -74.512489    0.000000    0.000000    -37.256245    0.000000    0.000000    -2.690687    -0.086463    3.171577    86.245667    49.799305    -1.124656    -1.402543    -19.247797    2.021984    13.454459    -55.313347    4.258364    0.354761    0.364349    -0.356575    0.000000    0.000000    -0.615937    0.000000    0.000000    -1.231874    16.569536    0.890920    2.991502    33.185600    0.000000    -0.000000    16.592802    0.000000    -0.000000    32.969753    0.892025    1.932033    58.534355    0.000000    -0.000000    32.980228    0.000000    -0.000000    49.366669    0.594007    0.915388    83.883102    0.000000    -0.000000    49.367645    0.000000    -0.000000    66.251648    0.000000    -0.000000    110.000000    0.000000    -0.000000    66.251648    0.000000    -0.000000    -4.681255    -1.612260    2.125569    -0.191609    17.489410    0.590380    1.996064    -13.173654    7.563123    0.469647    1.698716    -0.606211    -1.204774    -3.019328    5.927504    0.627363    13.602467    9.748247    -1.926258    -7.266994    -1.685656    0.066999    0.001917    -0.114099    
-1.662346    81.220970    115.184532    1.064330    -3.336998    -8.172984    1.390847    -0.252427    -0.462322    -4.099087    5.644571    0.046481    5.078133    -1.371381    -0.115155    -4.742958    3.988524    1.270660    1.311797    7.829218    -9.009400    -78.358444    35.977982    -9.094564    5.717239    -11.375395    3.179184    -4.545247    -40.610687    -4.093097    4.856438    0.430754    6.216996    -0.000000    0.000000    4.702336    -0.000000    0.000000    9.404672    -12.886723    1.383784    -6.025458    -25.919111    0.000000    0.000000    -12.959555    0.000000    0.000000    -21.010321    -0.286453    -1.291709    -42.022831    0.000000    0.000000    -21.011414    0.000000    0.000000    -28.976171    -2.602942    3.162909    -58.126549    0.000000    0.000000    -29.063272    0.000000    0.000000    -36.997135    -5.604525    7.385200    -74.718246    0.000000    0.000000    -37.359127    0.000000    0.000000    -2.700053    -0.101950    3.171699    86.200676    49.829758    -1.084689    -1.406721    -19.175514    2.048111    13.465765    -55.366077    4.293190    0.342389    0.367319    -0.371103    0.000000    0.000000    -0.630699    0.000000    0.000000    -1.261398    16.538023    0.889291    2.992053    33.122490    0.000000    -0.000000    16.561249    0.000000    -0.000000    32.925690    0.890744    1.932608    58.492081    0.000000    -0.000000    32.936138    0.000000    -0.000000    49.310051    0.593289    0.915823    83.861649    0.000000    -0.000000    49.311039    0.000000    -0.000000    66.182137    0.000000    -0.000000    110.000000    0.000000    -0.000000    66.182137    0.000000    -0.000000    -4.682522    -1.740174    2.032250    -0.221712    17.696379    0.628318    2.019124    -13.240606    7.535079    0.470591    1.691840    -0.610941    -1.191966    -3.166718    5.955176    0.614668    13.886553    9.625093    -1.910956    -7.398920    -1.686372    0.064689    0.006372    -0.110334    
-1.642393    81.220581    115.156845    1.072931    -3.333559    -8.073139    1.400867    -0.218465    -0.489227    -4.111989    5.631761    0.037857    5.092163    -1.367225    -0.151943    -4.760840    3.964602    1.236581    1.310091    7.821801    -9.039922    -78.311348    35.990223    -9.125050    5.701272    -11.311657    3.189955    -4.581986    -40.548393    -4.122458    4.855590    0.424350    6.206978    -0.000000    0.000000    4.692251    -0.000000    0.000000    9.384501    -12.914969    1.452429    -6.307744    -25.990009    0.000000    0.000000    -12.995005    0.000000    0.000000    -21.044987    -0.232756    -1.470965    -42.090878    0.000000    0.000000    -21.045437    0.000000    0.000000    -29.011673    -2.578763    3.083328    -58.191719    0.000000    0.000000    -29.095860    0.000000    0.000000    -37.026054    -5.624549    7.403519    -74.780487    0.000000    0.000000    -37.390240    0.000000    0.000000    -2.707517    -0.107542    3.168581    86.143105    49.867924    -1.027940    -1.402287    -19.141235    2.072296    13.440096    -55.379753    4.297812    0.328927    0.364795    -0.376961    0.000000    0.000000    -0.635232    0.000000    0.000000    -1.270465    16.526855    0.907720    3.056114    33.102139    0.000000    -0.000000    16.551071    0.000000    -0.000000    32.899677    0.909114    1.974099    58.478443    0.000000    -0.000000    32.910587    0.000000    -0.000000    49.269077    0.605508    0.935601    83.854729    0.000000    -0.000000    49.270092    0.000000    -0.000000    66.125343    0.000000    -0.000000    110.000000    0.000000    -0.000000    66.125343    0.000000    -0.000000    -4.686663    -1.867924    1.963330    -0.246047    17.889971    0.636666    2.041922    -13.301640    7.507328    0.470428    1.686633    -0.612326    -1.184950    -3.326764    5.989030    0.611180    14.184202    9.500129    -1.900609    -7.536159    -1.696087    0.062085    0.013832    -0.106180    
-1.621512    81.220619    115.128983    1.084323    -3.327672    -7.972512    1.413961    -0.189344    -0.516572    -4.135585    5.618428    0.029505    5.112499    -1.362969    -0.190197    -4.780186    3.951182    1.202302    1.310995    7.819410    -9.070817    -78.262520    35.984394    -9.157156    5.683265    -11.241545    3.207264    -4.642194    -40.481415    -4.176157    4.868726    0.411093    6.202309    -0.000000    0.000000    4.682664    -0.000000    0.000000    9.365331    -13.170976    2.100852    -8.903114    -26.669094    0.000000    0.000000    -13.334547    0.000000    0.000000    -21.268030    0.314759    -3.180733    -42.539242    0.000000    0.000000    -21.269621    0.000000    0.000000    -29.152777    -2.249788    2.237285    -58.409405    0.000000    0.000000    -29.204699    0.000000    0.000000    -37.014938    -5.631966    7.416100    -74.760452    0.000000    0.000000    -37.380226    0.000000    0.000000    -2.711008    -0.113911    3.162089    86.089493    49.909039    -0.969674    -1.398372    -19.151724    2.089965    13.405808    -55.362640    4.287442    0.326948    0.363693    -0.376559    0.000000    0.000000    -0.633161    0.000000    0.000000    -1.266322    16.518778    0.919914    3.098686    33.087322    0.000000    -0.000000    16.543665    0.000000    -0.000000    32.873466    0.921120    2.001709    58.468510    0.000000    -0.000000    32.884678    0.000000    -0.000000    49.224644    0.613451    0.948813    83.849686    0.000000    -0.000000    49.225693    0.000000    -0.000000    66.061882    0.000000    -0.000000    110.000000    0.000000    -0.000000    66.061882    0.000000    -0.000000    -4.693769    -1.988357    1.918309    -0.264050    18.062849    0.618078    2.061734    -13.354208    7.480130    0.470159    1.685796    -0.611941    -1.180117    -3.488548    6.016665    0.603899    14.479690    9.389177    -1.888561    -7.674497    -1.711744    0.061626    0.021240    -0.105678    
-1.600507    81.220734    115.101181    1.097615    -3.319559    -7.868820    1.424872    -0.166491    -0.548726    -4.158883    5.606330    0.019702    5.131660    -1.359528    -0.226064    -4.797880    3.949270    1.170548    1.309154    7.817219    -9.099627    -78.215683    35.984379    -9.178789    5.671076    -11.173140    3.218549    -4.719261    -40.426060    -4.227973    4.877173    0.397259    6.191757    -0.000000    0.000000    4.669572    -0.000000    0.000000    9.339143    -13.305608    2.445889    -10.229094    -27.049114    0.000000    0.000000    -13.524557    0.000000    0.000000    -21.410252    0.601872    -4.054306    -42.835651    0.000000    0.000000    -21.417826    0.000000    0.000000    -29.274748    -2.082288    1.802774    -58.622189    0.000000    0.000000    -29.311094    0.000000    0.000000    -37.077427    -5.644769    7.416065    -74.887108    0.000000    0.000000    -37.443550    0.000000    0.000000    -2.715833    -0.123179    3.155773    86.046013    49.942787    -0.918349    -1.399929    -19.172132    2.111885    13.367688    -55.346443    4.264884    0.341515    0.364391    -0.366707    0.000000    0.000000    -0.621867    0.000000    0.000000    -1.243735    16.515257    0.913051    3.076307    33.079552    0.000000    -0.000000    16.539776    0.000000    -0.000000    32.845413    0.913847    1.987365    58.463295    0.000000    -0.000000    32.856449    0.000000    -0.000000    49.172108    0.608494    0.942164    83.847054    0.000000    -0.000000    49.173141    0.000000    -0.000000    65.984268    0.000000    -0.000000    110.000000    0.000000    -0.000000    65.984268    0.000000    -0.000000    -4.702394    -2.100096    1.882476    -0.279145    18.213615    0.600558    2.076248    -13.398488    7.438277    0.471201    1.690763    -0.612839    -1.173073    -3.650264    6.033788    0.585415    14.771522    9.281274    -1.867863    -7.812678    -1.721368    0.061634    0.027004    -0.105907    
